<svg width="54" height="69" viewBox="0 0 54 69" fill="none" xmlns="http://www.w3.org/2000/svg">
<path d="M53.952 56.328V69H3.168V58.92L29.088 34.44C31.84 31.816 33.696 29.576 34.656 27.72C35.616 25.8 36.096 23.912 36.096 22.056C36.096 19.368 35.168 17.32 33.312 15.912C31.52 14.44 28.864 13.704 25.344 13.704C22.4 13.704 19.744 14.28 17.376 15.432C15.008 16.52 13.024 18.184 11.424 20.424L0.096 13.128C2.72 9.224 6.336 6.184 10.944 4.008C15.552 1.768 20.832 0.647999 26.784 0.647999C31.776 0.647999 36.128 1.48 39.84 3.144C43.616 4.744 46.528 7.048 48.576 10.056C50.688 13 51.744 16.488 51.744 20.52C51.744 24.168 50.976 27.592 49.44 30.792C47.904 33.992 44.928 37.64 40.512 41.736L25.056 56.328H53.952Z" fill="#00FEFF"/>
</svg>
