<svg width="55" height="70" viewBox="0 0 55 70" fill="none" xmlns="http://www.w3.org/2000/svg">
<path d="M36.136 28.16C42.024 29.12 46.536 31.328 49.672 34.784C52.808 38.176 54.376 42.4 54.376 47.456C54.376 51.36 53.352 54.976 51.304 58.304C49.256 61.568 46.12 64.192 41.896 66.176C37.736 68.16 32.616 69.152 26.536 69.152C21.8 69.152 17.128 68.544 12.52 67.328C7.976 66.048 4.104 64.256 0.904 61.952L6.952 50.048C9.512 51.968 12.456 53.472 15.784 54.56C19.176 55.584 22.632 56.096 26.152 56.096C30.056 56.096 33.128 55.36 35.368 53.888C37.608 52.352 38.728 50.208 38.728 47.456C38.728 41.952 34.536 39.2 26.152 39.2H19.048V28.928L32.872 13.28H4.264V0.799995H51.304V10.88L36.136 28.16Z" fill="#00FEFF"/>
</svg>
